<svg xmlns="http://www.w3.org/2000/svg" width="355.741" height="127.999" viewBox="0 0 355.741 127.999"><defs><style>.a{fill:#fff;}.b{fill:#34ffc8;}</style></defs><g transform="translate(227.743 0)"><path class="a" d="M244.75,241a3.75,3.75,0,1,0,3.75,3.75A3.755,3.755,0,0,0,244.75,241Zm0,0" transform="translate(-180.751 -180.751)"/><path class="a" d="M160.046,170.657a7.5,7.5,0,1,0,10.607-10.607l-12.86-12.857a22.5,22.5,0,0,1,0-31.82l12.86-12.857a7.5,7.5,0,1,0-10.607-10.607l-12.857,12.86a22.5,22.5,0,0,1-31.82,0l-12.857-12.86A7.5,7.5,0,1,0,91.9,102.515l12.86,12.857a22.5,22.5,0,0,1,0,31.82L91.9,160.05a7.5,7.5,0,1,0,10.607,10.607l12.857-12.86a22.5,22.5,0,0,1,31.82,0Zm-28.767-28.125a11.25,11.25,0,1,1,11.25-11.25A11.264,11.264,0,0,1,131.279,142.533Zm0,0" transform="translate(-67.28 -67.284)"/><path class="b" d="M313.963,19.322a15,15,0,0,1,21.215,21.213l-11.56,11.559a26.206,26.206,0,1,0-21.212-21.21Zm0,0" transform="translate(-226.502 0)"/><path class="a" d="M328.25,302a26.352,26.352,0,0,0-4.635.405l11.562,11.557a15,15,0,0,1-21.21,21.217l-11.562-11.562A26.253,26.253,0,1,0,328.25,302Zm0,0" transform="translate(-226.501 -226.501)"/><path class="a" d="M26.25,52.5a26.352,26.352,0,0,0,4.635-.405L19.322,40.537A15,15,0,0,1,40.532,19.32L52.094,30.882A26.253,26.253,0,1,0,26.25,52.5Zm0,0" transform="translate(0)"/><path class="b" d="M40.536,335.177a15,15,0,0,1-21.217-21.21l11.564-11.562a26.206,26.206,0,1,0,21.21,21.21Zm0,0" transform="translate(0 -226.501)"/></g><path class="b" d="M40.552-28.712a6.444,6.444,0,0,1,5.365,2.183q1.739,2.183.925,5.809L44.178-7.992A10.13,10.13,0,0,1,40.7-2.183,9.513,9.513,0,0,1,34.484,0H5.772Q2.146,0,.444-2.183T-.518-7.992L.888-14.874h17.02l-1.776,8.51H26.788l3.4-15.984H10.508a6.444,6.444,0,0,1-5.365-2.183Q3.4-26.714,4.218-30.34L6.882-43.068a10.13,10.13,0,0,1,3.478-5.809,9.513,9.513,0,0,1,6.216-2.183H45.288A6.479,6.479,0,0,1,50.653-48.9q1.739,2.158.925,5.76L50.172-36.26H33.152L34.928-44.7H24.272l-3.4,15.984ZM99.9-23.9a10.13,10.13,0,0,1-3.478,5.809,9.513,9.513,0,0,1-6.216,2.183L70.6-15.984,67.192,0H50.172l10.8-51.06h36.7a6.444,6.444,0,0,1,5.365,2.183q1.739,2.183.925,5.809ZM76.664-44.7,71.928-22.348H82.584L87.32-44.7ZM147.26,0H130.24l3.4-15.984H122.988L119.584,0h-17.02l9.1-43.068a10.13,10.13,0,0,1,3.478-5.809,9.513,9.513,0,0,1,6.216-2.183h28.712a6.444,6.444,0,0,1,5.365,2.183q1.739,2.183.925,5.809Zm-18.2-44.7L124.32-22.348h10.656L139.712-44.7ZM162.948,0a6.444,6.444,0,0,1-5.365-2.183q-1.739-2.183-.925-5.809l7.4-35.076a10.13,10.13,0,0,1,3.478-5.809,9.513,9.513,0,0,1,6.216-2.183h28.194L200.614-44.7H181.448L172.864-6.364h19.61L191.142,0ZM205.72,0a6.444,6.444,0,0,1-5.365-2.183q-1.739-2.183-.925-5.809l7.4-35.076a10.13,10.13,0,0,1,3.478-5.809,9.513,9.513,0,0,1,6.216-2.183h28.194L243.386-44.7H224.22l-3.4,15.984H235.69l-1.332,6.364H219.484l-3.4,15.984h19.166L233.914,0Z" transform="translate(0.742 90.999)"/><path class="a" d="M24.786,0H-1.62L6.264-37.26h12.42L11.772-4.644H25.758Zm37.53,0H49.9L52.38-11.664H44.6L42.12,0H29.7l6.642-31.428a7.392,7.392,0,0,1,2.538-4.239,6.942,6.942,0,0,1,4.536-1.593H64.368a4.7,4.7,0,0,1,3.915,1.593,4.813,4.813,0,0,1,.675,4.239ZM49.032-32.616,45.576-16.308h7.776l3.456-16.308ZM101.3,0H88.884L85.32-23.382,80.352,0H67.932l7.884-37.26h12.42L91.8-13.824,96.768-37.26h12.42Zm39.474-5.832a7.392,7.392,0,0,1-2.538,4.239A6.942,6.942,0,0,1,133.7,0H106.92L114.8-37.26h26.784a4.7,4.7,0,0,1,3.915,1.593,4.813,4.813,0,0,1,.675,4.239ZM126.252-32.616l-5.94,27.972h7.776l5.94-27.972Z" transform="translate(26.742 123.999)"/></svg>